<svg width="25" height="12" viewBox="0 0 25 12" fill="none" xmlns="http://www.w3.org/2000/svg">
<path opacity="0.4" fill-rule="evenodd" clip-rule="evenodd" d="M2.74032 1.02762H19.8673C20.8132 1.02762 21.58 1.79442 21.58 2.74032V8.90604C21.58 9.85194 20.8132 10.6187 19.8673 10.6187H2.74032C1.79442 10.6187 1.02762 9.85194 1.02762 8.90604V2.74032C1.02762 1.79442 1.79442 1.02762 2.74032 1.02762ZM0 2.74032C0 1.22688 1.22688 0 2.74032 0H19.8673C21.3808 0 22.6076 1.22688 22.6076 2.74032V8.90604C22.6076 10.4195 21.3808 11.6464 19.8673 11.6464H2.74032C1.22688 11.6464 0 10.4195 0 8.90604V2.74032ZM25 5.82318C25 6.72043 24.4622 7.53029 23.6353 7.87842V3.76794C24.4622 4.11608 25 4.92594 25 5.82318Z" fill="white"/>
<rect x="2.05524" y="2.05524" width="18.4972" height="7.53588" rx="1.33333" fill="white"/>
</svg>
