<svg width="19" height="18" viewBox="0 0 19 18" fill="none" xmlns="http://www.w3.org/2000/svg">
<path d="M18.2692 9.25273C18.6728 9.25273 19 8.95683 19 8.59182C19 8.22681 18.6728 7.93091 18.2692 7.93091H16.7704C16.6905 7.22231 16.4831 6.53026 16.1566 5.88209L17.4603 5.20136C17.8068 5.01762 17.9244 4.61536 17.7235 4.30074C17.5227 3.98611 17.0787 3.8771 16.7295 4.05666L15.4229 4.73872C14.962 4.16157 14.4017 3.65505 13.7633 3.23846L14.5175 2.05675C14.716 1.74093 14.5955 1.33938 14.2476 1.15773C13.8997 0.976077 13.4549 1.08243 13.2518 1.39584L12.4961 2.5716C11.7795 2.27626 11.0143 2.08874 10.2308 2.01643V0.660909C10.2308 0.295899 9.90359 0 9.49999 0C9.0964 0 8.76922 0.295899 8.76922 0.660909V2.01643C7.98572 2.08874 7.22052 2.27626 6.50384 2.5716L5.75115 1.39253C5.62154 1.18636 5.37972 1.05881 5.11749 1.05829C4.85525 1.05776 4.61282 1.18436 4.48221 1.39001C4.35159 1.59567 4.35284 1.84885 4.48546 2.05344L5.23669 3.23846C4.59986 3.65452 4.04081 4.16013 3.58077 4.73608L2.27415 4.05402C1.92495 3.87445 1.48096 3.98347 1.28011 4.2981C1.07925 4.61272 1.19684 5.01498 1.54338 5.19871L2.84707 5.87945C2.52052 6.52762 2.31317 7.21966 2.23323 7.92827H0.730769C0.327176 7.92827 0 8.22417 0 8.58918C0 8.95419 0.327176 9.25009 0.730769 9.25009H2.22957C2.30952 9.95869 2.51686 10.6507 2.84342 11.2989L1.53973 11.9796C1.31176 12.0969 1.17073 12.3156 1.17015 12.5527C1.16957 12.7899 1.30955 13.0092 1.53694 13.1273C1.76433 13.2454 2.04427 13.2443 2.2705 13.1243L3.58077 12.4476C4.04161 13.0249 4.60193 13.5317 5.24034 13.9485L4.48619 15.1302C4.35357 15.3348 4.35232 15.588 4.48294 15.7936C4.61355 15.9993 4.85599 16.1259 5.11822 16.1254C5.38045 16.1248 5.62227 15.9973 5.75188 15.7911L6.50457 14.612C7.22125 14.9074 7.98645 15.0949 8.76996 15.1672V16.5227C8.76996 16.8877 9.09713 17.1836 9.50072 17.1836C9.90432 17.1836 10.2315 16.8877 10.2315 16.5227V15.1672C11.015 15.0949 11.7802 14.9074 12.4969 14.612L13.2496 15.7911C13.4527 16.1045 13.8975 16.2109 14.2454 16.0292C14.5933 15.8476 14.7138 15.446 14.5153 15.1302L13.7611 13.9485C14.3995 13.5317 14.9598 13.0249 15.4207 12.4476L16.7273 13.1296C16.8383 13.1879 16.9644 13.2184 17.0927 13.2182C17.4234 13.2182 17.7129 13.0173 17.7985 12.7283C17.8841 12.4394 17.7445 12.1345 17.4581 11.9849L16.1566 11.3015C16.4831 10.6534 16.6905 9.96134 16.7704 9.25273H18.2692ZM9.49999 13.8791C6.27125 13.8791 3.65384 11.5119 3.65384 8.59182C3.65384 5.67174 6.27125 3.30455 9.49999 3.30455C12.7287 3.30455 15.3461 5.67174 15.3461 8.59182C15.3425 11.5105 12.7272 13.8758 9.49999 13.8791Z" fill="#414141"/>
<path d="M10.2308 6.6102C10.6344 6.6102 10.9616 6.3143 10.9616 5.94929C10.9616 5.58428 10.6344 5.28838 10.2308 5.28838C9.82721 5.28838 9.50003 5.58428 9.50003 5.94929C9.50003 6.3143 9.82721 6.6102 10.2308 6.6102Z" fill="#414141"/>
<path d="M6.57813 7.26947C6.98172 7.26947 7.3089 6.97357 7.3089 6.60856C7.3089 6.24355 6.98172 5.94765 6.57813 5.94765C6.17453 5.94765 5.84736 6.24355 5.84736 6.60856C5.84736 6.97357 6.17453 7.26947 6.57813 7.26947Z" fill="#414141"/>
<path d="M12.4255 10.5753C12.8291 10.5753 13.1563 10.2794 13.1563 9.91438C13.1563 9.54937 12.8291 9.25347 12.4255 9.25347C12.0219 9.25347 11.6947 9.54937 11.6947 9.91438C11.6947 10.2794 12.0219 10.5753 12.4255 10.5753Z" fill="#414141"/>
<path d="M7.30975 11.2346C7.71334 11.2346 8.04052 10.9387 8.04052 10.5736C8.04052 10.2086 7.71334 9.91273 7.30975 9.91273C6.90616 9.91273 6.57898 10.2086 6.57898 10.5736C6.57898 10.9387 6.90616 11.2346 7.30975 11.2346Z" fill="#414141"/>
</svg>
