<svg width="168" height="170" viewBox="0 0 168 170" fill="none" xmlns="http://www.w3.org/2000/svg">
<path d="M26.923 97.1283C21.744 97.9981 17.6126 98.7888 14.5289 99.5004C13.5801 101.003 12.9673 102.011 12.6906 102.525C11.8604 103.988 11.1092 105.213 10.4371 106.202C9.80456 107.15 9.1127 108 8.36155 108.751C7.53132 109.582 6.83947 110.175 6.28599 110.531C5.77204 110.886 5.15925 111.064 4.44763 111.064C3.2616 111.064 2.21393 110.807 1.30464 110.293C0.43488 109.74 0 109.186 0 108.633C0.079069 108.554 0.513949 107.684 1.30464 106.024C2.09533 104.324 3.55811 102.209 5.69297 99.6783C5.69297 99.362 5.59413 98.9667 5.39646 98.4923C5.19879 98.0179 5.09995 97.7411 5.09995 97.6621C5.09995 96.5156 6.89877 95.1319 10.4964 93.5109C12.5127 90.5063 14.6278 87.5412 16.8417 84.6157C19.0952 81.6901 21.8428 78.2309 25.0846 74.2379C25.8753 73.2495 26.8835 72.439 28.109 71.8065C29.3346 71.1739 30.5602 70.8577 31.7857 70.8577C33.0508 70.8577 33.9997 70.9763 34.6322 71.2135C35.2648 71.4507 35.6601 71.767 35.8183 72.1623C36.0159 72.5577 36.1148 73.1111 36.1148 73.8228C35.9566 75.0088 35.8578 75.8983 35.8183 76.4913C35.2252 81.275 34.7706 85.3866 34.4543 88.8261C34.1776 92.2261 34.0392 95.626 34.0392 99.026C34.0392 102.149 34.1776 105.015 34.4543 107.625C34.3357 108.574 33.9206 109.443 33.209 110.234C32.4974 110.985 31.6671 111.361 30.7183 111.361C28.8997 111.361 27.6939 110.906 27.1009 109.997C26.5474 109.088 26.2707 107.546 26.2707 105.371C26.2707 103.79 26.4881 101.042 26.923 97.1283ZM19.2138 92.6807C19.9254 92.5226 21.0126 92.3447 22.4754 92.147L27.2195 91.4354C27.5753 85.9401 27.9904 81.9866 28.4648 79.575C26.923 81.3936 23.8393 85.7622 19.2138 92.6807Z" fill="#414141"/>
<path d="M57.7154 107.803C56.3713 109.068 55.0666 109.997 53.8015 110.59C52.5364 111.222 51.1132 111.539 49.5318 111.539C46.9225 111.539 44.9063 110.728 43.483 109.107C42.0993 107.486 41.4075 105.332 41.4075 102.643C41.4075 101.853 41.5261 100.983 41.7633 100.034L45.7365 84.5564C45.9737 83.6866 46.3888 83.0541 46.9818 82.6587C47.6144 82.2238 48.6225 82.0064 50.0062 82.0064C52.062 82.0064 53.0899 82.5796 53.0899 83.7261C53.0899 84.2006 52.9515 84.9517 52.6748 85.9796L48.7016 101.872C48.583 102.347 48.5237 102.821 48.5237 103.296C48.5237 104.126 48.7411 104.798 49.176 105.312C49.6109 105.826 50.3027 106.083 51.2515 106.083C52.4771 106.083 53.8015 105.727 55.2248 105.015C56.648 104.304 57.8538 103.434 58.8422 102.406L59.9689 97.7214C60.7201 94.5586 61.5898 91.1389 62.5782 87.4622C63.0131 85.8808 63.5665 84.5959 64.2386 83.6075C64.9502 82.5796 66.0572 82.0657 67.5595 82.0657C69.6549 82.0657 70.7025 82.6983 70.7025 83.9634C70.7025 84.161 70.6432 84.418 70.5246 84.7343C70.4455 85.011 70.3862 85.2482 70.3467 85.4459L68.3897 93.5702C66.334 102.189 64.9898 107.704 64.3572 110.115C63.3293 114.069 62.1631 117.172 60.8584 119.426C59.5538 121.679 57.9131 123.3 55.9364 124.289C53.9992 125.277 51.5085 125.771 48.4644 125.771C46.5272 125.771 44.926 125.494 43.6609 124.941C42.4353 124.387 41.5261 123.715 40.933 122.925C40.3796 122.134 40.1028 121.403 40.1028 120.73C40.1028 118.793 41.1702 117.825 43.3051 117.825C43.8981 117.825 44.3725 117.943 44.7284 118.18C45.1237 118.418 45.519 118.754 45.9144 119.189C46.5074 119.742 47.0411 120.157 47.5155 120.434C48.0295 120.711 48.7213 120.849 49.5911 120.849C50.2632 120.849 51.0143 120.572 51.8446 120.019C52.6748 119.465 53.4852 118.596 54.2759 117.41C55.0666 116.224 55.7189 114.741 56.2329 112.962L57.7154 107.803Z" fill="#414141"/>
<path d="M83.2481 111.539C79.769 111.539 77.0609 110.353 75.1237 107.981C73.1866 105.609 72.218 102.584 72.218 98.9074C72.218 95.8237 72.9494 92.9179 74.4121 90.19C75.9144 87.4622 77.9505 85.268 80.5202 83.6075C83.0899 81.9471 85.9167 81.1169 89.0004 81.1169C92.0445 81.1169 94.5352 82.125 96.4724 84.1413C98.4491 86.118 99.4375 89.0435 99.4375 92.9179C99.4375 95.6458 98.6863 98.4725 97.184 101.398C95.6817 104.324 93.6654 106.755 91.1352 108.692C88.6445 110.59 86.0155 111.539 83.2481 111.539ZM84.1376 106.795C85.4027 106.795 86.6678 106.004 87.9329 104.422C89.2376 102.841 90.305 100.845 91.1352 98.433C91.9654 96.0214 92.3806 93.6691 92.3806 91.3761C92.3806 87.8575 90.9178 86.0982 87.9922 86.0982C86.3713 86.0982 84.8888 86.8691 83.5446 88.411C82.2004 89.9528 81.133 91.8703 80.3423 94.1633C79.5516 96.4167 79.1563 98.5318 79.1563 100.509C79.1563 101.655 79.4132 102.722 79.9272 103.711C80.4411 104.66 81.0737 105.411 81.8248 105.964C82.6155 106.518 83.3865 106.795 84.1376 106.795Z" fill="#414141"/>
<path d="M11.1487 169.042C9.56736 168.686 8.46039 168.311 7.82784 167.915C7.19529 167.52 6.78018 167.006 6.5825 166.374C6.42437 165.702 6.30576 164.595 6.22669 163.053C6.14762 160.72 5.94995 157.083 5.63367 152.141C5.59414 151.351 5.45577 148.801 5.21856 144.491C4.98136 140.182 4.86275 136.051 4.86275 132.097C4.86275 131.148 5.27786 130.358 6.10809 129.725C6.97785 129.053 8.06505 128.717 9.36969 128.717C10.5557 128.717 11.4255 129.053 11.979 129.725C12.5324 130.358 12.8092 131.346 12.8092 132.69L12.8685 156.292V162.163C16.0312 155.166 19.6487 147.832 23.7207 140.162C27.7928 132.453 30.402 128.598 31.5485 128.598C33.0113 128.598 34.1974 128.934 35.1067 129.607C36.0159 130.279 36.4904 131.069 36.5299 131.979C36.2927 132.493 35.3241 134.311 33.6241 137.434L30.8369 142.356L28.8207 146.092C24.8277 153.406 22.0405 158.447 20.4591 161.214C18.8777 163.982 17.5533 165.939 16.4859 167.085C16.0115 167.639 15.2801 168.093 14.2917 168.449C13.3429 168.845 12.2952 169.042 11.1487 169.042Z" fill="#414141"/>
<path d="M55.8882 164.713C55.9673 165.741 56.1056 166.67 56.3033 167.5C56.2242 167.738 55.8684 167.975 55.2359 168.212C54.6429 168.449 54.1289 168.568 53.694 168.568C52.2708 168.568 51.2429 168.35 50.6104 167.915C50.0173 167.52 49.7208 166.907 49.7208 166.077C49.7208 165.286 49.7999 164.496 49.958 163.705C49.0883 164.891 47.8034 165.879 46.1034 166.67C44.443 167.421 43.0988 167.797 42.0709 167.797C39.4221 167.797 37.2082 167.026 35.4291 165.484C33.6896 163.942 32.8198 161.471 32.8198 158.071C32.8198 154.869 33.571 151.864 35.0733 149.058C36.6151 146.211 38.7302 143.938 41.4186 142.238C44.1069 140.498 47.0918 139.629 50.3731 139.629C51.0057 139.629 51.8359 139.806 52.8638 140.162C53.8917 140.479 54.9196 141.052 55.9475 141.882C57.0149 142.673 57.9045 143.701 58.6161 144.966C58.9324 144.966 59.3079 145.124 59.7428 145.44C60.1777 145.756 60.3951 146.073 60.3951 146.389C60.3951 146.745 60.3358 147.101 60.2172 147.456L55.8882 164.713ZM53.2196 148.109C52.9824 147.239 52.508 146.508 51.7964 145.915C51.1243 145.322 50.5115 145.025 49.958 145.025C48.1394 145.025 46.4197 145.677 44.7988 146.982C43.2174 148.247 41.9325 149.828 40.9442 151.726C39.9558 153.624 39.4616 155.423 39.4616 157.123C39.4616 158.783 39.6593 160.147 40.0546 161.214C40.45 162.282 41.2209 162.816 42.3674 162.816C43.3558 162.816 44.4825 162.519 45.7476 161.926C47.0522 161.333 48.1987 160.542 49.1871 159.554C50.215 158.526 50.8871 157.459 51.2034 156.352L53.2196 148.109Z" fill="#414141"/>
<path d="M92.5339 141.23C92.6921 141.467 92.8897 141.922 93.1269 142.594C93.4037 143.226 93.542 143.72 93.542 144.076C93.542 144.274 93.5223 144.392 93.4827 144.432C93.2851 144.669 92.8304 144.867 92.1188 145.025C91.4072 145.183 90.9328 145.282 90.6956 145.322C89.47 146.112 87.513 147.377 84.8247 149.117C82.1759 150.817 80.2387 152.062 79.0131 152.853C79.0922 153.802 79.8038 155.264 81.148 157.241C82.4922 159.178 83.9352 161.017 85.477 162.756C87.0189 164.496 87.9479 165.366 88.2642 165.366C88.62 165.366 89.0549 165.662 89.5688 166.255C90.1223 166.848 90.3991 167.382 90.3991 167.856C90.3991 168.291 90.1223 168.568 89.5688 168.686C89.213 168.765 88.5409 168.904 87.5526 169.102C86.6037 169.299 85.7735 169.398 85.0619 169.398C84.4293 169.398 83.9352 169.319 83.5793 169.161C82.6701 168.845 81.4247 167.797 79.8433 166.018C78.3015 164.199 76.819 162.183 75.3957 159.969C73.9725 157.716 73.0434 155.778 72.6085 154.157C71.3434 159.257 70.4539 162.756 69.9399 164.654C69.426 166.512 69.0109 167.718 68.6946 168.271C68.3783 168.864 68.0028 169.161 67.5679 169.161L65.9074 169.22C63.2982 169.22 61.9342 168.172 61.8156 166.077C62.6063 164.14 63.1598 162.539 63.4761 161.274C67.39 146.765 70.1771 135.833 71.8376 128.48C71.7981 127.887 71.7585 127.076 71.719 126.048C71.6795 124.981 71.6597 124.151 71.6597 123.558C71.7783 123.044 72.2132 122.629 72.9643 122.312C73.755 121.996 74.4666 121.838 75.0992 121.838C76.0876 121.838 77.1352 122.174 78.2422 122.846C79.3492 123.518 79.9224 124.329 79.9619 125.278L74.6841 145.974L73.676 150.066C74.5062 149.038 75.9097 147.773 77.8864 146.27C79.9026 144.768 81.9584 143.424 84.0538 142.238C86.1886 141.052 87.8886 140.34 89.1537 140.103C89.47 140.103 90.0432 140.202 90.8735 140.399C91.7432 140.597 92.2967 140.874 92.5339 141.23Z" fill="#414141"/>
<path d="M104.29 148.287C104.29 149.077 104.646 149.71 105.358 150.184C106.07 150.659 107.196 151.192 108.738 151.785C110.399 152.457 111.743 153.09 112.771 153.683C113.799 154.276 114.688 155.146 115.439 156.292C116.23 157.399 116.625 158.823 116.625 160.562C116.625 163.409 115.439 165.603 113.067 167.145C110.735 168.647 107.592 169.398 103.638 169.398C101.701 169.398 99.8824 169.082 98.1824 168.449C96.522 167.856 95.1976 167.105 94.2092 166.196C93.2208 165.286 92.7266 164.377 92.7266 163.468C92.7266 162.519 93.1418 161.748 93.972 161.155C94.8022 160.523 95.9685 160.107 97.4708 159.91C97.5103 160.7 97.9254 161.452 98.7161 162.163C99.5068 162.835 100.436 163.389 101.503 163.824C102.61 164.219 103.559 164.417 104.35 164.417C105.694 164.417 106.92 164.061 108.026 163.349C109.133 162.598 109.687 161.728 109.687 160.74C109.687 158.921 107.928 157.478 104.409 156.411C102.156 155.739 100.416 154.671 99.1905 153.209C98.0045 151.746 97.4115 150.204 97.4115 148.583C97.4115 145.737 98.5778 143.542 100.91 142.001C103.282 140.459 106.445 139.688 110.399 139.688C112.336 139.688 114.056 139.984 115.558 140.577C117.1 141.17 118.286 141.941 119.116 142.89C119.946 143.799 120.361 144.709 120.361 145.618C120.361 146.567 119.946 147.358 119.116 147.99C118.286 148.583 117.119 148.978 115.617 149.176C115.578 148.385 115.222 147.654 114.55 146.982C113.917 146.27 113.146 145.717 112.237 145.322C111.328 144.887 110.478 144.669 109.687 144.669C108.343 144.669 107.097 145.025 105.951 145.737C104.844 146.448 104.29 147.298 104.29 148.287Z" fill="#414141"/>
<path d="M128.602 132.572C128.602 131.346 128.977 130.259 129.729 129.31C130.519 128.361 131.607 127.887 132.99 127.887C134.453 127.887 135.718 128.341 136.786 129.251C137.892 130.16 138.446 131.188 138.446 132.334C138.446 133.481 137.892 134.469 136.786 135.3C135.679 136.13 134.394 136.545 132.931 136.545C131.508 136.545 130.42 136.189 129.669 135.477C128.958 134.726 128.602 133.758 128.602 132.572ZM122.968 163.824C122.968 163.112 124.728 155.996 128.246 142.475L127.89 140.281C127.89 139.846 128.147 139.51 128.661 139.273C129.175 139.036 130.164 138.917 131.626 138.917C132.773 138.917 133.603 139.233 134.117 139.866C134.67 140.498 134.947 141.249 134.947 142.119C134.947 142.356 134.908 142.673 134.829 143.068L129.551 164.417L129.907 166.611C129.907 167.046 129.65 167.382 129.136 167.619C128.622 167.856 127.633 167.975 126.171 167.975C124.866 167.975 124.016 167.599 123.621 166.848C123.225 166.057 123.008 165.049 122.968 163.824Z" fill="#414141"/>
<path d="M144.042 139.036C145.9 138.047 147.442 137.553 148.668 137.553C150.012 137.553 150.763 138.245 150.921 139.629L148.549 148.465C151.158 144.709 153.59 142.119 155.843 140.696C158.097 139.233 160.113 138.502 161.892 138.502C163.987 138.502 165.509 138.897 166.458 139.688C167.447 140.439 167.96 141.645 168 143.305C166.656 146.942 165.529 150.402 164.62 153.683C163.75 156.964 163.315 159.989 163.315 162.756V164.12C163.315 165.227 162.999 165.959 162.366 166.314C161.773 166.631 160.568 166.789 158.749 166.789C158.037 166.789 157.365 166.67 156.733 166.433C156.14 166.196 155.843 165.8 155.843 165.247C155.843 163.666 156.199 161.353 156.911 158.309C157.622 155.264 158.413 152.26 159.283 149.295C160.192 146.33 160.647 144.926 160.647 145.084C160.647 144.531 160.33 144.254 159.698 144.254C158.868 144.254 157.523 144.985 155.665 146.448C153.807 147.911 151.909 150.204 149.972 153.327C148.035 156.411 146.493 160.285 145.347 164.95C145.307 165.188 145.228 165.622 145.11 166.255C144.991 166.888 144.675 167.342 144.161 167.619C143.647 167.856 142.817 167.975 141.67 167.975C140.365 167.975 139.397 167.836 138.764 167.56C138.132 167.283 137.815 166.69 137.815 165.781L139.595 158.19C140.069 156.134 140.682 153.525 141.433 150.362C142.184 147.16 143.054 143.384 144.042 139.036Z" fill="#414141"/>
<path d="M162.677 0.622782L148.646 13.3124L146.984 11.8097C146.066 10.9795 144.579 10.9795 143.661 11.8097L141.998 13.3131L151.968 22.3303L153.631 20.8261C154.549 19.9959 154.549 18.6508 153.631 17.8206L151.969 16.3179L166 3.62821C166.918 2.79799 166.918 1.45285 166 0.62264C165.082 -0.20757 163.595 -0.20757 162.677 0.622782Z" fill="#12D5C6"/>
<path d="M143.191 70.4249C143.191 71.5997 144.243 72.5504 145.542 72.5504H164.343C165.642 72.5504 166.693 71.5997 166.693 70.4249V64.0485H143.191V70.4249Z" fill="#F9B64B"/>
<path d="M163.292 47.4718C165.454 45.8859 166.693 43.5342 166.693 40.6678C166.693 39.4929 165.642 38.5423 164.343 38.5423H145.542C144.243 38.5423 143.191 39.4929 143.191 40.6678V41.114C143.191 43.6006 144.426 45.9109 146.577 47.4551C147.426 48.0674 147.862 48.9517 147.894 49.1301C147.862 49.373 147.433 50.2385 146.609 50.8509C144.438 52.4721 143.191 54.8633 143.191 57.4121V59.797H166.693V57.4121C166.693 54.8633 165.447 52.4721 163.273 50.8509C162.452 50.2386 162.022 49.373 161.99 49.205C162.022 48.96 162.454 48.0841 163.289 47.4738L163.292 47.4718Z" fill="#F9B64B"/>
<path d="M105.447 40.3672L102.124 43.3731L100.461 41.8692C99.543 41.039 98.0557 41.039 97.1377 41.8692C96.2197 42.6995 96.2197 44.0446 97.1377 44.8748L117.079 62.9102C117.539 63.3254 118.14 63.5329 118.741 63.5329C119.342 63.5329 119.944 63.3254 120.403 62.9102C121.321 62.08 121.321 60.7348 120.403 59.9046L118.74 58.4008L122.063 55.3955L105.447 40.3672Z" fill="#12D5C6"/>
<path d="M151.001 28.3431C151.001 27.7786 150.754 27.2388 150.313 26.8404L137.018 14.8161C136.136 14.0191 134.576 14.0191 133.694 14.8161L128.709 19.3258L133.694 23.835C134.612 24.6652 134.612 26.0103 133.694 26.8405C132.776 27.6707 131.289 27.6707 130.371 26.8405L125.385 22.3314L122.062 25.337L127.048 29.8461C127.966 30.6763 127.966 32.0214 127.048 32.8517C126.13 33.6819 124.642 33.6819 123.725 32.8517L118.739 28.3428L115.416 31.3484L120.401 35.8572C121.319 36.6874 121.319 38.0326 120.401 38.8628C119.483 39.693 117.996 39.693 117.078 38.8628L112.093 34.3542L108.769 37.3608L125.385 52.389L150.313 29.8461C150.754 29.4473 151.001 28.9076 151.001 28.3431Z" fill="#12D5C6"/>
<path d="M98.7969 52.3889L92.1476 58.4016L90.4857 56.8986C89.5677 56.0684 88.0804 56.0684 87.1624 56.8986C86.2445 57.7288 86.2445 59.074 87.1624 59.9042L100.458 71.9284C100.917 72.3436 101.518 72.5512 102.119 72.5512C102.72 72.5512 103.322 72.3436 103.781 71.9284C104.699 71.0982 104.699 69.7531 103.781 68.9229L102.119 67.4199L108.767 61.4062L98.7969 52.3889Z" fill="#12D5C6"/>
</svg>
