<svg width="30" height="27" viewBox="0 0 30 27" fill="none" xmlns="http://www.w3.org/2000/svg">
<path d="M0.194134 4.5112C0.14066 4.5751 0.0753494 4.63425 0 4.68728C0.28153 4.62203 0.300975 4.53726 0.368926 4.35464H0.320315C0.28153 4.4003 0.233024 4.45249 0.194134 4.5112Z" fill="#414141"/>
<path d="M1.24043 14.1874H3.89938C4.00603 15.4477 4.37194 16.679 4.9783 17.8178L2.67318 19.0221C2.40132 19.1619 2.23311 19.4228 2.23243 19.7056C2.23174 19.9884 2.39867 20.2499 2.66985 20.3908C2.94104 20.5317 3.27489 20.5303 3.54468 20.3873L5.84371 19.1861C6.63592 20.2281 7.63288 21.1297 8.78502 21.8462L7.45773 23.9263C7.29956 24.1703 7.29808 24.4722 7.45385 24.7175C7.60961 24.9627 7.89874 25.1137 8.21147 25.1131C8.52421 25.1124 8.8126 24.9603 8.96717 24.7144L10.2988 22.6297C11.5579 23.1785 12.9193 23.5094 14.313 23.6055V26.0102C14.313 26.4455 14.7031 26.7984 15.1845 26.7984C15.6658 26.7984 16.056 26.4455 16.056 26.0102V23.6055C17.4496 23.5094 18.811 23.1785 20.0701 22.6297L21.4018 24.7144C21.5563 24.9603 21.8447 25.1124 22.1575 25.1131C22.4702 25.1137 22.7593 24.9627 22.9151 24.7175C23.0708 24.4722 23.0694 24.1703 22.9112 23.9263L21.5839 21.8462C22.7361 21.1297 23.733 20.2281 24.5252 19.1861L26.8242 20.3873C27.094 20.5303 27.4279 20.5317 27.6991 20.3908C27.9703 20.2499 28.1372 19.9884 28.1365 19.7056C28.1358 19.4228 27.9676 19.1619 27.6957 19.0221L25.3906 17.8178C25.997 16.679 26.3629 15.4477 26.4695 14.1874H29.1285C29.6098 14.1874 30 13.8345 30 13.3992C30 12.9639 29.6098 12.611 29.1285 12.611H26.4695C26.3629 11.3507 25.997 10.1195 25.3906 8.98062L27.6957 7.77627C27.9676 7.63648 28.1358 7.37566 28.1365 7.09282C28.1372 6.80998 27.9703 6.54849 27.6991 6.40762C27.4279 6.26675 27.094 6.26808 26.8242 6.41113L24.5252 7.61233C23.733 6.57032 22.7361 5.66867 21.5839 4.95219L22.9112 2.87216C23.0694 2.62816 23.0708 2.32622 22.9151 2.08096C22.7593 1.8357 22.4702 1.68473 22.1575 1.68535C21.8447 1.68597 21.5563 1.83809 21.4018 2.08397L20.0701 4.16873C18.811 3.61997 17.4496 3.28902 16.056 3.19295V0.788189C16.056 0.352884 15.6658 0 15.1845 0C14.7031 0 14.313 0.352884 14.313 0.788189V3.19295C12.9193 3.28902 11.5579 3.61997 10.2988 4.16873L8.96717 2.08397C8.8126 1.83809 8.52421 1.68597 8.21147 1.68535C7.89874 1.68473 7.60961 1.8357 7.45385 2.08096C7.29808 2.32622 7.29956 2.62816 7.45773 2.87216L8.78502 4.95219C7.63288 5.66867 6.63592 6.57032 5.84371 7.61233L3.54468 6.41113C3.27489 6.26808 2.94104 6.26675 2.66985 6.40762C2.39867 6.54849 2.23174 6.80998 2.23243 7.09282C2.23311 7.37566 2.40132 7.63648 2.67318 7.77627L4.9783 8.98062C4.37194 10.1195 4.00603 11.3507 3.89938 12.611H1.24043C0.759115 12.611 0.36893 12.9639 0.36893 13.3992C0.36893 13.8345 0.759115 14.1874 1.24043 14.1874ZM15.1845 4.72913C20.479 4.72913 24.771 8.61086 24.771 13.3992C24.771 18.1876 20.479 22.0693 15.1845 22.0693C9.88997 22.0693 5.59794 18.1876 5.59794 13.3992C5.60418 8.6132 9.89256 4.73478 15.1845 4.72913Z" fill="#414141"/>
<path d="M11.6699 13.399C13.2041 13.399 14.4478 12.3492 14.4478 11.0542C14.4478 9.75915 13.2041 8.70932 11.6699 8.70932C10.1357 8.70932 8.892 9.75915 8.892 11.0542C8.892 12.3492 10.1357 13.399 11.6699 13.399ZM11.6699 10.2726C12.1813 10.2726 12.5959 10.6225 12.5959 11.0542C12.5959 11.4859 12.1813 11.8358 11.6699 11.8358C11.1585 11.8358 10.7439 11.4859 10.7439 11.0542C10.7439 10.6225 11.1585 10.2726 11.6699 10.2726Z" fill="#414141"/>
<path d="M18.7041 19.0949C20.6474 19.0949 22.2228 17.6702 22.2228 15.9126C22.2228 14.1551 20.6474 12.7303 18.7041 12.7303C16.7608 12.7303 15.1854 14.1551 15.1854 15.9126C15.1854 17.6702 16.7608 19.0949 18.7041 19.0949ZM18.7041 14.3215C19.6757 14.3215 20.4634 15.0338 20.4634 15.9126C20.4634 16.7914 19.6757 17.5038 18.7041 17.5038C17.7324 17.5038 16.9447 16.7914 16.9447 15.9126C16.9447 15.0338 17.7324 14.3215 18.7041 14.3215Z" fill="#414141"/>
<path d="M16.8546 9.37946C17.366 9.37946 17.7806 9.07951 17.7806 8.7095C17.7806 8.33949 17.366 8.03954 16.8546 8.03954C16.3432 8.03954 15.9286 8.33949 15.9286 8.7095C15.9286 9.07951 16.3432 9.37946 16.8546 9.37946Z" fill="#414141"/>
<path d="M11.668 17.4179C12.1794 17.4179 12.594 17.043 12.594 16.5805C12.594 16.118 12.1794 15.743 11.668 15.743C11.1566 15.743 10.742 16.118 10.742 16.5805C10.742 17.043 11.1566 17.4179 11.668 17.4179Z" fill="#414141"/>
</svg>
