<svg width="21" height="19" viewBox="0 0 21 19" fill="none" xmlns="http://www.w3.org/2000/svg">
<path d="M20.3824 8.93763H18.4979C18.4223 8.04442 18.163 7.17183 17.7333 6.36471L19.3669 5.51116C19.5596 5.41209 19.6788 5.22724 19.6793 5.02679C19.6798 4.82634 19.5615 4.64102 19.3693 4.54118C19.1771 4.44134 18.9405 4.44229 18.7493 4.54367L17.1199 5.39497C16.5585 4.65649 15.8519 4.01748 15.0354 3.50969L15.9761 2.03554C16.0882 1.86262 16.0892 1.64863 15.9788 1.47481C15.8684 1.30099 15.6635 1.19399 15.4419 1.19443C15.2202 1.19488 15.0158 1.30269 14.9063 1.47694L13.9625 2.95444C13.0702 2.56553 12.1053 2.33098 11.1176 2.2629V0.558602C11.1176 0.250094 10.8411 0 10.5 0C10.1589 0 9.88235 0.250094 9.88235 0.558602V2.2629C8.89468 2.33098 7.9298 2.56553 7.03747 2.95444L6.09371 1.47694C5.98416 1.30269 5.77977 1.19488 5.55813 1.19443C5.33649 1.19399 5.13158 1.30099 5.02119 1.47481C4.9108 1.64863 4.91185 1.86262 5.02394 2.03554L5.96462 3.50969C5.14807 4.01748 4.44152 4.65649 3.88006 5.39497L2.25071 4.54367C2.0595 4.44229 1.82289 4.44134 1.6307 4.54118C1.43851 4.64102 1.3202 4.82634 1.32069 5.02679C1.32118 5.22724 1.44038 5.41209 1.63306 5.51116L3.26674 6.36471C2.83699 7.17183 2.57767 8.04442 2.50209 8.93763H0.617647C0.27653 8.93763 0 9.18772 0 9.49623C0 9.80474 0.27653 10.0548 0.617647 10.0548H2.50209C2.57767 10.948 2.83699 11.8206 3.26674 12.6277L1.63306 13.4813C1.44038 13.5804 1.32118 13.7652 1.32069 13.9657C1.3202 14.1661 1.43851 14.3514 1.6307 14.4513C1.82289 14.5511 2.0595 14.5502 2.25071 14.4488L3.88006 13.5975C4.44152 14.336 5.14807 14.975 5.96462 15.4828L5.02394 16.9569C4.91185 17.1298 4.9108 17.3438 5.02119 17.5176C5.13158 17.6915 5.33649 17.7985 5.55813 17.798C5.77977 17.7976 5.98416 17.6898 6.09371 17.5155L7.03747 16.038C7.9298 16.4269 8.89468 16.6615 9.88235 16.7296V18.4339C9.88235 18.7424 10.1589 18.9925 10.5 18.9925C10.8411 18.9925 11.1176 18.7424 11.1176 18.4339V16.7296C12.1053 16.6615 13.0702 16.4269 13.9625 16.038L14.9063 17.5155C15.0158 17.6898 15.2202 17.7976 15.4419 17.798C15.6635 17.7985 15.8684 17.6915 15.9788 17.5176C16.0892 17.3438 16.0882 17.1298 15.9761 16.9569L15.0354 15.4828C15.8519 14.975 16.5585 14.336 17.1199 13.5975L18.7493 14.4488C18.9405 14.5502 19.1771 14.5511 19.3693 14.4513C19.5615 14.3514 19.6798 14.1661 19.6793 13.9657C19.6788 13.7652 19.5596 13.5804 19.3669 13.4813L17.7333 12.6277C18.163 11.8206 18.4223 10.948 18.4979 10.0548H20.3824C20.7235 10.0548 21 9.80474 21 9.49623C21 9.18772 20.7235 8.93763 20.3824 8.93763ZM10.5 15.6408C6.74771 15.6408 3.70588 12.8898 3.70588 9.49623C3.70588 6.10265 6.74771 3.35161 10.5 3.35161C14.2523 3.35161 17.2941 6.10265 17.2941 9.49623C17.2897 12.8881 14.2505 15.6368 10.5 15.6408Z" fill="#414141"/>
<path d="M8.02775 6.14429C7.0044 6.14429 6.17481 6.89457 6.17481 7.82009C6.17481 8.74561 7.0044 9.4959 8.02775 9.4959C9.0511 9.4959 9.88069 8.74561 9.88069 7.82009C9.88069 6.89457 9.0511 6.14429 8.02775 6.14429ZM8.02775 8.37869C7.68663 8.37869 7.4101 8.1286 7.4101 7.82009C7.4101 7.51158 7.68663 7.26149 8.02775 7.26149C8.36887 7.26149 8.6454 7.51158 8.6454 7.82009C8.6454 8.1286 8.36887 8.37869 8.02775 8.37869Z" fill="#414141"/>
<path d="M12.9706 8.9364C11.6061 8.9364 10.5 9.93678 10.5 11.1708C10.5 12.4048 11.6061 13.4052 12.9706 13.4052C14.3351 13.4052 15.4412 12.4048 15.4412 11.1708C15.4412 9.93678 14.3351 8.9364 12.9706 8.9364ZM12.9706 12.288C12.2884 12.288 11.7353 11.7878 11.7353 11.1708C11.7353 10.5538 12.2884 10.0536 12.9706 10.0536C13.6528 10.0536 14.2059 10.5538 14.2059 11.1708C14.2059 11.7878 13.6528 12.288 12.9706 12.288Z" fill="#414141"/>
<path d="M11.7366 6.70497C12.0777 6.70497 12.3542 6.45488 12.3542 6.14637C12.3542 5.83786 12.0777 5.58777 11.7366 5.58777C11.3955 5.58777 11.1189 5.83786 11.1189 6.14637C11.1189 6.45488 11.3955 6.70497 11.7366 6.70497Z" fill="#414141"/>
<path d="M8.03029 12.2895C8.37141 12.2895 8.64794 12.0394 8.64794 11.7309C8.64794 11.4224 8.37141 11.1723 8.03029 11.1723C7.68917 11.1723 7.41264 11.4224 7.41264 11.7309C7.41264 12.0394 7.68917 12.2895 8.03029 12.2895Z" fill="#414141"/>
</svg>
